<svg width="48" height="48" viewBox="0 0 48 48" fill="none" xmlns="http://www.w3.org/2000/svg">
<g clip-path="url(#clip0_30_171)">
<path d="M29.94 29.94C28.2306 31.243 26.1491 31.9649 24 32C17 32 13 24 13 24C14.2439 21.6819 15.9691 19.6566 18.06 18.06M21.9 16.24C22.5883 16.0789 23.2931 15.9983 24 16C31 16 35 24 35 24C34.393 25.1356 33.6691 26.2047 32.84 27.19M26.12 26.12C25.8454 26.4147 25.5141 26.6512 25.1462 26.8151C24.7782 26.9791 24.3809 27.0673 23.9781 27.0744C23.5753 27.0815 23.1752 27.0074 22.8016 26.8565C22.4281 26.7056 22.0887 26.481 21.8038 26.1962C21.519 25.9113 21.2944 25.5719 21.1435 25.1984C20.9926 24.8248 20.9185 24.4247 20.9256 24.0219C20.9327 23.6191 21.0209 23.2218 21.1849 22.8538C21.3488 22.4859 21.5853 22.1547 21.88 21.88" stroke="black" stroke-width="2" stroke-linecap="round" stroke-linejoin="round"/>
<path d="M13 13L35 35" stroke="black" stroke-width="2" stroke-linecap="round" stroke-linejoin="round"/>
</g>
<path opacity="0.5" d="M29 21.832L27.7075 20.5L23.5 24.8266L19.2925 20.5L18 21.832L23.5 27.5L29 21.832Z" fill="black"/>
<defs>
<clipPath id="clip0_30_171">
<rect width="24" height="24" fill="white" transform="translate(12 12)"/>
</clipPath>
</defs>
</svg>
